<svg width="130" height="35" viewBox="0 0 130 35" xmlns="http://www.w3.org/2000/svg" xmlns:xlink="http://www.w3.org/1999/xlink">
    <defs>
        <path id="a" d="M.098.087h36.204V32.48H.098z"/>
        <path id="c" d="M0 .143h92.107v34.035H0z"/>
    </defs>
    <g fill="none" fill-rule="evenodd">
        <g transform="translate(93.6 1.08)">
            <mask id="b" fill="#fff">
                <use xlink:href="#a"/>
            </mask>
            <path fill="#FFF" mask="url(#b)" d="M13.859.087.099 32.48h9.654L18.2 12.594l8.448 19.886h9.654L22.542.087h-8.683"/>
        </g>
        <path fill="#218EC2" d="M128.695 13.674H111.8l8.448 19.885 8.447-19.885"/>
        <path d="M49.362 16.732c3.05 0 4.806-1.478 4.806-3.835v-.093c0-2.541-1.848-3.835-4.852-3.835h-5.869v7.763h5.915zM34.482 1.205h15.296c4.945 0 8.365 1.294 10.536 3.512 1.895 1.849 2.865 4.344 2.865 7.533v.092c0 4.944-2.634 8.226-6.654 9.936l7.717 11.275H53.891l-6.516-9.797h-3.928v9.797h-8.965V1.205z" fill="#FFF"/>
        <g>
            <mask id="d" fill="#fff">
                <use xlink:href="#c"/>
            </mask>
            <path fill="#FFF" mask="url(#d)" d="M65.86 1.205h26.016V8.83H74.732v4.899h15.527v7.07H74.732v5.13h17.375v7.624H65.86V1.205"/>
            <path d="M17.864 21.054h5.573v3.977c-1.356.889-3.04 1.357-5.239 1.357-5.193 0-8.888-3.79-8.888-9.076v-.094c0-4.881 3.47-8.782 8.024-8.973a8.03 8.03 0 0 1 .35-.009c3.089 0 5.364 1.03 7.604 2.842l3.35-7.887C25.668 1.254 22.179.143 17.637.143c-1.244 0-2.449.114-3.605.329C5.762 2.012 0 8.798 0 17.172v.093C0 27.183 7.625 34.2 17.824 34.2c5.941 0 10.76-2.199 14.221-5.053v-14.64H20.552l-2.688 6.547" fill="#218EC2" mask="url(#d)"/>
        </g>
    </g>
</svg>
